<?xml version="1.0" standalone="no"?>
<!DOCTYPE svg PUBLIC "-//W3C//DTD SVG 20010904//EN"
 "http://www.w3.org/TR/2001/REC-SVG-20010904/DTD/svg10.dtd">
<svg version="1.0" xmlns="http://www.w3.org/2000/svg"
 width="444.000000pt" height="444.000000pt" viewBox="0 0 444.000000 444.000000"
 preserveAspectRatio="xMidYMid meet">
<metadata>
Created by potrace 1.14, written by Peter Selinger 2001-2017
</metadata>
<g transform="translate(0.000000,444.000000) scale(0.100000,-0.100000)"
fill="#000000" stroke="none">
<path d="M2258 4346 c-1 -2 -59 -6 -128 -9 -69 -4 -134 -8 -145 -11 -11 -2
-42 -7 -70 -10 -221 -30 -500 -126 -710 -244 -602 -339 -997 -930 -1084 -1622
-10 -79 -7 -460 4 -520 3 -19 11 -62 16 -95 38 -226 127 -475 239 -670 71
-124 75 -130 80 -135 3 -3 20 -27 39 -55 279 -405 747 -725 1230 -842 126 -30
122 -29 196 -38 33 -4 69 -10 80 -13 35 -8 408 -10 460 -2 28 4 73 11 100 14
459 61 950 327 1270 687 259 291 442 660 505 1014 5 33 12 71 15 84 29 152 27
516 -5 681 -6 30 -13 69 -16 85 -35 205 -169 528 -303 732 -366 558 -993 923
-1651 959 -52 3 -100 7 -107 9 -6 2 -13 2 -15 1z m237 -242 c599 -81 1121
-436 1420 -964 98 -172 196 -451 220 -627 4 -26 9 -66 12 -88 9 -59 9 -360 1
-436 -84 -740 -602 -1372 -1318 -1606 -96 -31 -225 -61 -335 -77 -124 -19
-408 -14 -551 8 -454 73 -885 319 -1174 672 -182 222 -327 511 -391 784 -15
65 -13 53 -23 115 -4 28 -10 66 -14 85 -9 50 -8 393 1 468 17 137 69 353 106
437 5 11 19 45 31 75 50 125 168 325 259 440 234 293 555 518 904 634 116 38
280 75 372 83 33 3 61 7 63 8 10 9 332 1 417 -11z"/>
<path d="M2089 4026 c-2 -2 -35 -6 -73 -10 -165 -16 -390 -83 -571 -171 -419
-203 -746 -562 -908 -995 -37 -100 -82 -264 -92 -340 -4 -25 -10 -72 -15 -105
-10 -80 -10 -324 1 -405 20 -147 20 -146 59 -300 15 -57 65 -189 103 -271 125
-268 344 -533 577 -697 36 -26 67 -50 68 -54 2 -5 8 -8 14 -8 5 0 22 -8 36
-19 15 -10 61 -36 102 -58 207 -108 422 -173 660 -202 76 -9 374 -7 420 3 14
3 41 7 60 10 144 18 362 87 523 167 282 140 511 339 695 603 90 129 223 407
247 516 2 8 10 42 19 75 8 33 18 74 20 90 3 17 8 41 11 55 27 125 28 416 0
585 -62 386 -239 730 -520 1009 -277 275 -634 452 -1030 510 -79 11 -396 21
-406 12z m366 -39 c17 -3 50 -8 75 -12 548 -81 1061 -459 1318 -970 206 -411
243 -912 101 -1347 -192 -589 -666 -1035 -1263 -1187 -150 -39 -246 -52 -406
-55 -114 -2 -350 17 -371 30 -4 2 -24 6 -45 10 -47 7 -227 60 -274 81 -250
107 -435 228 -600 393 -99 99 -120 123 -192 222 -143 194 -248 423 -299 653
-21 94 -25 116 -38 230 -9 76 -7 322 4 395 10 66 35 189 47 235 7 22 12 42 13
45 24 86 88 248 127 320 246 459 658 785 1153 914 33 8 78 18 99 22 21 3 48 8
60 10 11 2 50 7 86 10 36 4 66 8 68 9 5 4 306 -3 337 -8z"/>
<path d="M1740 3170 c0 -17 8 -19 73 -22 l72 -3 0 -905 c-1 -1013 1 -976 -70
-1039 -68 -59 -228 -59 -302 -1 l-26 20 24 0 c74 1 159 78 180 163 35 149 -36
286 -166 317 -173 41 -315 -72 -315 -250 0 -171 139 -289 385 -325 45 -7 219
-8 250 -1 11 2 40 7 65 11 68 10 138 34 211 72 209 108 321 338 323 666 1 37
3 67 6 67 3 0 11 -9 18 -20 66 -106 352 -114 541 -15 85 45 159 110 206 181
41 61 89 187 101 262 10 69 11 209 2 267 -4 27 -10 64 -12 80 -8 47 -42 138
-71 191 -82 148 -229 251 -384 271 -167 22 -298 -11 -370 -94 l-39 -44 0 63
c0 35 0 73 -1 86 l-1 22 -350 0 c-341 0 -350 -1 -350 -20z m979 -84 c62 -33
67 -80 65 -646 -1 -399 -3 -449 -19 -488 -52 -128 -260 -83 -310 68 -5 14 -10
214 -11 445 -2 454 1 484 51 557 14 21 42 47 63 57 44 24 122 27 161 7z"/>
</g>
</svg>
